# xmcd
#
# Track frame offsets:
#  150
#  14842
#  26602
#  39342
#  53830
#  70622
#  90777
#  110805
#  128735
#  147917
#  167062
#  182600
#  201250
#
# Disc length: 2917 seconds
#
# Revision: 0
# Processed by: cddbd v1.5.1PL0 Copyright (c) Steve Scherf et al.
# Submitted via: Collectorz.com_Music_Collector 6.9
#
DISCID=ad0b630d
DTITLE=Phil Manning - Migrants Dance
DYEAR=2003
DGENRE=Blues -  Blues Acoustic -  Blues Folk
TTITLE0=Dreamin' 1930 Blues
TTITLE1=Border Towns
TTITLE2=Search For Money
TTITLE3=Migrants Dance PT.1
TTITLE4=Migrants Dance PT.2
TTITLE5=Hold The Line
TTITLE6=They Don't Talk
TTITLE7=Big Boyfriend
TTITLE8=Warm Me Up
TTITLE9=She Don't Call Me
TTITLE10=Railyard Rumblin'
TTITLE11=Field Of Green
TTITLE12=The One
EXTD=
EXTT0=
EXTT1=
EXTT2=
EXTT3=
EXTT4=
EXTT5=
EXTT6=
EXTT7=
EXTT8=
EXTT9=
EXTT10=
EXTT11=
EXTT12=
PLAYORDER=
